<?xml version="1.0" encoding="utf-8"?>
<!-- Generator: Adobe Illustrator 25.2.0, SVG Export Plug-In . SVG Version: 6.00 Build 0)  -->
<svg version="1.1" id="Layer_1" xmlns="http://www.w3.org/2000/svg" xmlns:xlink="http://www.w3.org/1999/xlink" x="0px" y="0px"
	 viewBox="0 0 1920 1080" style="enable-background:new 0 0 1920 1080;" xml:space="preserve">
<style type="text/css">
	.st0{fill:#7F8699;}
	.st1{fill:#FFFFFF;}
	.st2{fill-rule:evenodd;clip-rule:evenodd;fill:#F36C45;}
	.st3{fill-rule:evenodd;clip-rule:evenodd;fill:#FAA535;}
	.st4{fill-rule:evenodd;clip-rule:evenodd;fill:#EF4436;}
	.st5{fill:#F36C45;}
</style>
<g>
	<path class="st0" d="M678.4,756.6v-67.8h19.1c4.5,0,8.5,0.7,12.2,2.2s6.8,3.6,9.4,6.4c2.6,2.8,4.7,6.1,6.1,10.1
		c1.4,3.9,2.2,8.4,2.2,13.3v4c0,4.9-0.7,9.3-2.2,13.3c-1.4,3.9-3.5,7.3-6.1,10s-5.9,4.9-9.7,6.3c-3.8,1.5-8,2.2-12.7,2.2H678.4z
		 M687.3,696.2v53.1h9.4c3.6,0,6.8-0.6,9.5-1.7c2.7-1.2,5-2.8,6.8-5s3.2-4.7,4.1-7.7s1.4-6.4,1.4-10.1v-4.1c0-3.9-0.5-7.3-1.4-10.4
		s-2.3-5.6-4.1-7.7s-4-3.7-6.6-4.8c-2.6-1.1-5.6-1.6-8.9-1.6H687.3z"/>
	<path class="st0" d="M737.3,731c0-3.7,0.5-7.1,1.6-10.2c1.1-3.1,2.6-5.8,4.6-8.1c2-2.3,4.4-4.1,7.2-5.4c2.8-1.3,6-2,9.5-2
		c3.6,0,6.8,0.7,9.6,2s5.3,3.1,7.2,5.4c2,2.3,3.5,5,4.6,8.1c1.1,3.1,1.6,6.5,1.6,10.2v1c0,3.7-0.5,7.1-1.6,10.2
		c-1.1,3.1-2.6,5.8-4.6,8.1s-4.4,4.1-7.2,5.4c-2.8,1.3-6,1.9-9.5,1.9c-3.5,0-6.7-0.6-9.5-1.9c-2.8-1.3-5.2-3.1-7.2-5.4
		s-3.5-5-4.6-8.1c-1.1-3.1-1.6-6.5-1.6-10.2V731z M745.9,732c0,2.5,0.3,4.9,0.9,7.1c0.6,2.2,1.5,4.2,2.7,5.9c1.2,1.7,2.7,3,4.5,4
		c1.8,1,3.9,1.5,6.3,1.5c2.4,0,4.4-0.5,6.2-1.5c1.8-1,3.3-2.3,4.5-4c1.2-1.7,2.1-3.7,2.7-5.9s0.9-4.6,0.9-7.1v-1
		c0-2.5-0.3-4.9-0.9-7.1s-1.5-4.2-2.7-5.9c-1.2-1.7-2.7-3-4.5-4.1c-1.8-1-3.9-1.5-6.3-1.5c-2.4,0-4.4,0.5-6.2,1.5
		c-1.8,1-3.3,2.4-4.4,4.1c-1.2,1.7-2.1,3.7-2.7,5.9c-0.6,2.3-0.9,4.6-0.9,7.1V732z"/>
	<path class="st0" d="M814.1,750.5c1.5,0,3-0.2,4.4-0.7c1.4-0.5,2.6-1.2,3.7-2c1.1-0.9,1.9-1.9,2.6-3.1c0.7-1.2,1.1-2.5,1.2-3.9h8.1
		c-0.1,2.2-0.7,4.4-1.8,6.4c-1.1,2-2.6,3.8-4.4,5.4s-3.9,2.8-6.3,3.7c-2.4,0.9-4.9,1.4-7.6,1.4c-3.8,0-7.1-0.7-9.9-2
		c-2.8-1.4-5.1-3.2-7-5.5s-3.3-5-4.2-8c-0.9-3-1.4-6.3-1.4-9.6v-2c0-3.4,0.5-6.6,1.4-9.6c0.9-3,2.3-5.7,4.2-8s4.2-4.1,7-5.5
		c2.8-1.4,6.1-2,9.9-2c2.9,0,5.6,0.5,8,1.4s4.5,2.2,6.2,3.8s3.1,3.6,4.1,5.8c1,2.2,1.6,4.6,1.7,7.2H826c-0.1-1.6-0.5-3-1.1-4.4
		c-0.6-1.4-1.4-2.5-2.4-3.5c-1-1-2.2-1.8-3.7-2.4c-1.4-0.6-3-0.9-4.7-0.9c-2.7,0-4.9,0.5-6.6,1.6s-3.2,2.4-4.2,4.2
		c-1.1,1.7-1.8,3.7-2.3,5.8c-0.4,2.2-0.7,4.3-0.7,6.5v2c0,2.2,0.2,4.4,0.7,6.6c0.4,2.2,1.2,4.1,2.2,5.8s2.5,3.1,4.2,4.1
		C809.2,750,811.4,750.5,814.1,750.5z"/>
	<path class="st0" d="M875,751.7c-1.6,1.9-3.6,3.3-6,4.4s-5.3,1.6-8.8,1.6c-2.5,0-4.7-0.3-6.8-1c-2-0.7-3.8-1.8-5.2-3.3
		c-1.5-1.5-2.6-3.4-3.4-5.8c-0.8-2.4-1.2-5.2-1.2-8.6v-32.5h8.6v32.6c0,2.3,0.3,4.1,0.8,5.6c0.5,1.5,1.2,2.6,2.1,3.5
		c0.9,0.9,1.9,1.4,3,1.8c1.1,0.3,2.3,0.5,3.4,0.5c3.5,0,6.3-0.7,8.5-2s3.7-3.1,4.7-5.4v-36.6h8.6v50.4h-8.2L875,751.7z"/>
	<path class="st0" d="M904.5,706.3l0.2,5.6c1.7-2,3.8-3.6,6.3-4.8s5.3-1.7,8.6-1.7c3.3,0,6.1,0.6,8.6,1.9c2.5,1.3,4.4,3.3,5.8,6.2
		c1.7-2.4,3.9-4.4,6.5-5.9s5.9-2.2,9.5-2.2c2.7,0,5.1,0.3,7.2,1c2.1,0.7,3.8,1.8,5.3,3.3c1.4,1.5,2.5,3.4,3.3,5.7s1.1,5,1.1,8.2
		v33.1h-8.6v-33.2c0-2.1-0.3-3.9-0.8-5.3c-0.5-1.4-1.2-2.5-2.2-3.4c-0.9-0.8-2.1-1.4-3.4-1.7c-1.3-0.3-2.8-0.5-4.4-0.5
		c-1.8,0-3.3,0.3-4.7,0.8s-2.5,1.3-3.5,2.3s-1.8,2.1-2.3,3.4c-0.6,1.3-0.9,2.7-1.1,4.1v33.4h-8.7v-33.1c0-2-0.3-3.6-0.8-5
		c-0.5-1.4-1.2-2.5-2.2-3.4c-0.9-0.9-2.1-1.5-3.4-1.9c-1.3-0.4-2.8-0.6-4.4-0.6c-3.1,0-5.5,0.7-7.4,2c-1.9,1.3-3.3,3.1-4.2,5.2v36.8
		h-8.6v-50.4H904.5z"/>
	<path class="st0" d="M1000.9,757.6c-3.5,0-6.7-0.6-9.5-1.8s-5.3-2.9-7.3-5.1c-2-2.2-3.6-4.7-4.7-7.7c-1.1-3-1.6-6.2-1.6-9.8v-2
		c0-4.1,0.6-7.8,1.8-11c1.2-3.2,2.9-5.9,4.9-8.1s4.4-3.9,7-5.1c2.6-1.2,5.4-1.7,8.2-1.7c3.6,0,6.7,0.6,9.3,1.9
		c2.6,1.3,4.8,3,6.4,5.2c1.7,2.2,2.9,4.8,3.7,7.8c0.8,3,1.2,6.3,1.2,9.8v3.9h-34.1c0.1,2.3,0.4,4.5,1.1,6.5c0.7,2,1.7,3.8,3,5.3
		c1.3,1.5,2.8,2.7,4.7,3.5s3.9,1.3,6.2,1.3c3,0,5.6-0.6,7.7-1.9c2.1-1.2,4-2.9,5.5-4.9l5.3,4.1c-0.8,1.2-1.8,2.4-2.9,3.6
		s-2.5,2.2-4,3.1s-3.3,1.6-5.3,2.2C1005.7,757.3,1003.4,757.6,1000.9,757.6z M999.8,712.4c-1.7,0-3.3,0.3-4.8,1
		c-1.5,0.6-2.8,1.6-3.9,2.8c-1.1,1.2-2.1,2.7-2.9,4.5c-0.8,1.8-1.3,3.9-1.6,6.2h25.2v-0.7c-0.1-1.7-0.4-3.3-0.8-5
		c-0.5-1.6-1.1-3.1-2.1-4.4c-0.9-1.3-2.2-2.4-3.7-3.2C1003.9,712.8,1002,712.4,999.8,712.4z"/>
	<path class="st0" d="M1038.7,706.3l0.3,6.3c1.8-2.3,4-4,6.5-5.3c2.5-1.3,5.4-1.9,8.6-1.9c2.5,0,4.7,0.3,6.7,1s3.7,1.7,5.1,3.2
		s2.5,3.4,3.2,5.7s1.1,5.1,1.1,8.4v33h-8.6v-33.1c0-2-0.2-3.6-0.7-5s-1.1-2.5-1.9-3.4c-0.9-0.9-1.9-1.5-3.2-1.9
		c-1.3-0.4-2.7-0.6-4.4-0.6c-2.8,0-5.2,0.7-7.4,2.2c-2.1,1.5-3.8,3.4-4.9,5.9v35.9h-8.6v-50.4H1038.7z"/>
	<path class="st0" d="M1094.8,694.1v12.2h9.4v6.7h-9.4v31.2c0,1.3,0.2,2.4,0.5,3.1c0.3,0.8,0.7,1.4,1.2,1.8c0.5,0.4,1.1,0.7,1.8,0.9
		c0.7,0.1,1.4,0.2,2.1,0.2c0.7,0,1.5-0.1,2.3-0.2c0.8-0.1,1.4-0.3,1.8-0.3v7c-0.7,0.2-1.6,0.4-2.7,0.6s-2.4,0.3-4,0.3
		c-1.6,0-3.1-0.2-4.5-0.7c-1.4-0.5-2.6-1.2-3.7-2.3c-1.1-1.1-1.9-2.4-2.5-4.2c-0.6-1.7-0.9-3.8-0.9-6.4v-31.2h-9.2v-6.7h9.2v-12.2
		H1094.8z"/>
</g>
<g>
	<path class="st0" d="M1150.7,688.8l22.2,55.3l22.2-55.3h11.6v67.8h-8.9v-26.4l0.8-28.5l-22.3,54.9h-6.8l-22.2-54.8l0.9,28.4v26.4
		h-8.9v-67.8H1150.7z"/>
	<path class="st0" d="M1252.2,756.6c-0.3-0.6-0.6-1.4-0.7-2.4c-0.2-0.9-0.3-1.9-0.5-3c-0.8,0.8-1.7,1.6-2.7,2.4s-2.1,1.4-3.3,2
		c-1.2,0.6-2.5,1-3.9,1.4c-1.4,0.3-2.9,0.5-4.4,0.5c-2.6,0-4.9-0.4-7-1.2c-2.1-0.8-3.9-1.8-5.4-3.2c-1.5-1.3-2.6-2.9-3.4-4.7
		c-0.8-1.8-1.2-3.8-1.2-5.8c0-2.7,0.5-5.1,1.6-7.1c1.1-2.1,2.6-3.8,4.5-5.2c2-1.4,4.4-2.5,7.1-3.2c2.8-0.7,5.9-1.1,9.4-1.1h8.6v-4
		c0-3-0.9-5.4-2.7-7.2c-1.8-1.8-4.5-2.7-8-2.7c-1.6,0-3.1,0.2-4.4,0.7c-1.3,0.4-2.5,1-3.4,1.7c-0.9,0.7-1.7,1.6-2.2,2.5
		c-0.5,1-0.8,2-0.8,3h-8.7c0-1.8,0.5-3.6,1.4-5.4c0.9-1.8,2.3-3.4,4-4.8c1.7-1.4,3.8-2.6,6.3-3.4c2.5-0.9,5.2-1.3,8.3-1.3
		c2.7,0,5.3,0.3,7.6,1c2.3,0.7,4.3,1.8,5.9,3.2c1.6,1.4,2.9,3.2,3.9,5.3c0.9,2.1,1.4,4.6,1.4,7.4v23.4c0,1.7,0.1,3.5,0.4,5.4
		c0.3,1.9,0.7,3.5,1.3,4.9v0.7H1252.2z M1237.9,750.1c1.6,0,3-0.2,4.4-0.7c1.4-0.4,2.6-1,3.7-1.7c1.1-0.7,2.1-1.5,2.9-2.4
		c0.8-0.9,1.5-1.8,1.9-2.8v-10.3h-7.2c-4.9,0-8.7,0.8-11.4,2.3c-2.7,1.5-4,3.9-4,7c0,1.2,0.2,2.3,0.6,3.4c0.4,1.1,1,2,1.8,2.7
		c0.8,0.8,1.8,1.4,3,1.8C1234.9,749.8,1236.3,750.1,1237.9,750.1z"/>
	<path class="st0" d="M1281.1,706.3l0.3,6.3c1.8-2.3,4-4,6.5-5.3c2.5-1.3,5.4-1.9,8.6-1.9c2.5,0,4.7,0.3,6.7,1s3.7,1.7,5.1,3.2
		s2.5,3.4,3.2,5.7s1.1,5.1,1.1,8.4v33h-8.6v-33.1c0-2-0.2-3.6-0.7-5s-1.1-2.5-1.9-3.4c-0.9-0.9-1.9-1.5-3.2-1.9
		c-1.3-0.4-2.7-0.6-4.4-0.6c-2.8,0-5.2,0.7-7.4,2.2c-2.1,1.5-3.8,3.4-4.9,5.9v35.9h-8.6v-50.4H1281.1z"/>
	<path class="st0" d="M1356.7,756.6c-0.3-0.6-0.6-1.4-0.7-2.4c-0.2-0.9-0.3-1.9-0.5-3c-0.8,0.8-1.7,1.6-2.7,2.4s-2.1,1.4-3.3,2
		c-1.2,0.6-2.5,1-3.9,1.4s-2.9,0.5-4.4,0.5c-2.6,0-4.9-0.4-7-1.2c-2.1-0.8-3.9-1.8-5.4-3.2c-1.5-1.3-2.6-2.9-3.4-4.7
		s-1.2-3.8-1.2-5.8c0-2.7,0.5-5.1,1.6-7.1c1.1-2.1,2.6-3.8,4.5-5.2c2-1.4,4.4-2.5,7.1-3.2c2.8-0.7,5.9-1.1,9.4-1.1h8.6v-4
		c0-3-0.9-5.4-2.7-7.2c-1.8-1.8-4.5-2.7-8-2.7c-1.6,0-3.1,0.2-4.4,0.7c-1.3,0.4-2.5,1-3.4,1.7c-0.9,0.7-1.7,1.6-2.2,2.5
		c-0.5,1-0.8,2-0.8,3h-8.7c0-1.8,0.5-3.6,1.4-5.4c0.9-1.8,2.3-3.4,4-4.8c1.7-1.4,3.8-2.6,6.3-3.4c2.5-0.9,5.2-1.3,8.3-1.3
		c2.7,0,5.3,0.3,7.6,1c2.3,0.7,4.3,1.8,5.9,3.2c1.6,1.4,2.9,3.2,3.9,5.3c0.9,2.1,1.4,4.6,1.4,7.4v23.4c0,1.7,0.1,3.5,0.4,5.4
		c0.3,1.9,0.7,3.5,1.3,4.9v0.7H1356.7z M1342.4,750.1c1.6,0,3-0.2,4.4-0.7c1.4-0.4,2.6-1,3.7-1.7c1.1-0.7,2.1-1.5,2.9-2.4
		c0.8-0.9,1.5-1.8,1.9-2.8v-10.3h-7.2c-4.9,0-8.7,0.8-11.4,2.3c-2.7,1.5-4,3.9-4,7c0,1.2,0.2,2.3,0.6,3.4c0.4,1.1,1,2,1.8,2.7
		c0.8,0.8,1.8,1.4,3,1.8C1339.4,749.8,1340.8,750.1,1342.4,750.1z"/>
	<path class="st0" d="M1375.4,731c0-3.8,0.5-7.3,1.4-10.5c0.9-3.2,2.2-5.9,4-8.1c1.7-2.3,3.8-4,6.3-5.2c2.5-1.2,5.2-1.9,8.3-1.9
		c3.2,0,6,0.6,8.3,1.7c2.4,1.1,4.4,2.7,6.1,4.8l0.4-5.6h7.9v49.3c0,3.3-0.5,6.3-1.6,8.9c-1,2.6-2.5,4.8-4.4,6.6
		c-1.9,1.8-4.1,3.1-6.8,4.1s-5.5,1.4-8.7,1.4c-1.3,0-2.8-0.1-4.5-0.4c-1.7-0.3-3.4-0.8-5.1-1.4c-1.7-0.7-3.4-1.6-5-2.7
		c-1.6-1.1-2.9-2.5-4.1-4.1l4.5-5.2c1.1,1.3,2.1,2.4,3.3,3.3c1.1,0.9,2.2,1.6,3.4,2.1c1.1,0.5,2.3,0.9,3.4,1.1
		c1.2,0.2,2.3,0.3,3.5,0.3c2,0,3.8-0.3,5.5-0.9c1.6-0.6,3-1.4,4.2-2.6c1.2-1.1,2.1-2.6,2.7-4.2c0.6-1.7,0.9-3.6,0.9-5.8v-4.4
		c-1.7,1.9-3.7,3.4-6,4.4c-2.3,1-5,1.5-8.1,1.5c-3,0-5.7-0.6-8.2-1.9s-4.5-3-6.2-5.3c-1.7-2.3-3-5-4-8.1c-0.9-3.1-1.4-6.5-1.4-10.2
		V731z M1384.1,732c0,2.5,0.3,4.9,0.8,7.1c0.5,2.2,1.3,4.2,2.4,5.8c1.1,1.6,2.4,2.9,4.1,3.9c1.7,1,3.7,1.4,6,1.4
		c1.5,0,2.9-0.2,4.1-0.6c1.2-0.4,2.3-0.9,3.3-1.5c1-0.7,1.8-1.4,2.6-2.3s1.4-1.9,2-3v-23c-0.6-1-1.2-2-2-2.9s-1.6-1.7-2.6-2.3
		s-2.1-1.2-3.3-1.5c-1.2-0.4-2.6-0.5-4.1-0.5c-2.4,0-4.4,0.5-6.1,1.5c-1.7,1-3.1,2.3-4.1,4c-1.1,1.7-1.9,3.6-2.4,5.8
		c-0.5,2.2-0.8,4.6-0.8,7.1V732z"/>
	<path class="st0" d="M1451.8,757.6c-3.5,0-6.7-0.6-9.5-1.8s-5.3-2.9-7.3-5.1c-2-2.2-3.6-4.7-4.7-7.7c-1.1-3-1.6-6.2-1.6-9.8v-2
		c0-4.1,0.6-7.8,1.8-11c1.2-3.2,2.9-5.9,4.9-8.1c2-2.2,4.4-3.9,7-5.1c2.6-1.2,5.4-1.7,8.2-1.7c3.6,0,6.7,0.6,9.3,1.9
		c2.6,1.3,4.8,3,6.4,5.2c1.7,2.2,2.9,4.8,3.7,7.8c0.8,3,1.2,6.3,1.2,9.8v3.9h-34.1c0.1,2.3,0.4,4.5,1.1,6.5c0.7,2,1.7,3.8,3,5.3
		c1.3,1.5,2.8,2.7,4.7,3.5s3.9,1.3,6.2,1.3c3,0,5.6-0.6,7.7-1.9c2.1-1.2,4-2.9,5.5-4.9l5.3,4.1c-0.8,1.2-1.8,2.4-2.9,3.6
		c-1.1,1.2-2.5,2.2-4,3.1c-1.5,0.9-3.3,1.6-5.3,2.2S1454.4,757.6,1451.8,757.6z M1450.8,712.4c-1.7,0-3.3,0.3-4.8,1
		c-1.5,0.6-2.8,1.6-3.9,2.8c-1.1,1.2-2.1,2.7-2.9,4.5c-0.8,1.8-1.3,3.9-1.6,6.2h25.2v-0.7c-0.1-1.7-0.4-3.3-0.8-5s-1.1-3.1-2.1-4.4
		s-2.2-2.4-3.7-3.2C1454.8,712.8,1453,712.4,1450.8,712.4z"/>
	<path class="st0" d="M1489.6,706.3l0.2,5.6c1.7-2,3.8-3.6,6.3-4.8c2.5-1.1,5.3-1.7,8.6-1.7c3.3,0,6.1,0.6,8.6,1.9
		c2.5,1.3,4.4,3.3,5.8,6.2c1.7-2.4,3.9-4.4,6.5-5.9s5.9-2.2,9.5-2.2c2.7,0,5.1,0.3,7.2,1c2.1,0.7,3.8,1.8,5.3,3.3
		c1.4,1.5,2.5,3.4,3.3,5.7c0.7,2.3,1.1,5,1.1,8.2v33.1h-8.6v-33.2c0-2.1-0.3-3.9-0.8-5.3c-0.5-1.4-1.2-2.5-2.2-3.4
		c-0.9-0.8-2.1-1.4-3.4-1.7c-1.3-0.3-2.8-0.5-4.4-0.5c-1.8,0-3.3,0.3-4.7,0.8c-1.4,0.6-2.5,1.3-3.5,2.3s-1.8,2.1-2.3,3.4
		c-0.6,1.3-0.9,2.7-1.1,4.1v33.4h-8.7v-33.1c0-2-0.3-3.6-0.8-5s-1.2-2.5-2.2-3.4c-0.9-0.9-2.1-1.5-3.4-1.9c-1.3-0.4-2.8-0.6-4.4-0.6
		c-3.1,0-5.5,0.7-7.4,2s-3.3,3.1-4.2,5.2v36.8h-8.6v-50.4H1489.6z"/>
	<path class="st0" d="M1585.9,757.6c-3.5,0-6.7-0.6-9.5-1.8s-5.3-2.9-7.3-5.1c-2-2.2-3.6-4.7-4.7-7.7c-1.1-3-1.6-6.2-1.6-9.8v-2
		c0-4.1,0.6-7.8,1.8-11c1.2-3.2,2.9-5.9,4.9-8.1c2-2.2,4.4-3.9,7-5.1c2.6-1.2,5.4-1.7,8.2-1.7c3.6,0,6.7,0.6,9.3,1.9s4.8,3,6.4,5.2
		c1.7,2.2,2.9,4.8,3.7,7.8s1.2,6.3,1.2,9.8v3.9h-34.1c0.1,2.3,0.4,4.5,1.1,6.5c0.7,2,1.7,3.8,3,5.3c1.3,1.5,2.8,2.7,4.7,3.5
		c1.8,0.9,3.9,1.3,6.2,1.3c3,0,5.6-0.6,7.7-1.9c2.1-1.2,4-2.9,5.5-4.9l5.3,4.1c-0.8,1.2-1.8,2.4-2.9,3.6c-1.1,1.2-2.5,2.2-4,3.1
		s-3.3,1.6-5.3,2.2C1590.7,757.3,1588.5,757.6,1585.9,757.6z M1584.9,712.4c-1.7,0-3.3,0.3-4.8,1c-1.5,0.6-2.8,1.6-3.9,2.8
		c-1.1,1.2-2.1,2.7-2.9,4.5c-0.8,1.8-1.3,3.9-1.6,6.2h25.2v-0.7c-0.1-1.7-0.4-3.3-0.8-5s-1.1-3.1-2.1-4.4c-0.9-1.3-2.2-2.4-3.7-3.2
		C1588.9,712.8,1587.1,712.4,1584.9,712.4z"/>
	<path class="st0" d="M1623.7,706.3l0.3,6.3c1.8-2.3,4-4,6.5-5.3c2.5-1.3,5.4-1.9,8.6-1.9c2.5,0,4.7,0.3,6.7,1s3.7,1.7,5.1,3.2
		c1.4,1.5,2.5,3.4,3.2,5.7c0.8,2.3,1.1,5.1,1.1,8.4v33h-8.6v-33.1c0-2-0.2-3.6-0.7-5s-1.1-2.5-1.9-3.4c-0.9-0.9-1.9-1.5-3.2-1.9
		c-1.3-0.4-2.7-0.6-4.4-0.6c-2.8,0-5.2,0.7-7.4,2.2s-3.8,3.4-4.9,5.9v35.9h-8.6v-50.4H1623.7z"/>
	<path class="st0" d="M1679.9,694.1v12.2h9.4v6.7h-9.4v31.2c0,1.3,0.2,2.4,0.5,3.1c0.3,0.8,0.7,1.4,1.2,1.8s1.1,0.7,1.8,0.9
		c0.7,0.1,1.4,0.2,2.1,0.2c0.7,0,1.5-0.1,2.3-0.2c0.8-0.1,1.4-0.3,1.8-0.3v7c-0.7,0.2-1.6,0.4-2.7,0.6c-1.1,0.2-2.4,0.3-4,0.3
		c-1.6,0-3.1-0.2-4.5-0.7c-1.4-0.5-2.6-1.2-3.7-2.3s-1.9-2.4-2.5-4.2c-0.6-1.7-0.9-3.8-0.9-6.4v-31.2h-9.2v-6.7h9.2v-12.2H1679.9z"
		/>
</g>
<g>
	<path class="st0" d="M708.1,871.1c-0.3-0.6-0.6-1.4-0.7-2.4c-0.2-0.9-0.3-1.9-0.5-3c-0.8,0.8-1.7,1.6-2.7,2.4c-1,0.8-2.1,1.4-3.3,2
		c-1.2,0.6-2.5,1-3.9,1.4c-1.4,0.3-2.9,0.5-4.4,0.5c-2.6,0-4.9-0.4-7-1.2c-2.1-0.8-3.9-1.8-5.4-3.2s-2.6-2.9-3.4-4.7
		c-0.8-1.8-1.2-3.8-1.2-5.8c0-2.7,0.5-5.1,1.6-7.1c1.1-2.1,2.6-3.8,4.5-5.2c2-1.4,4.4-2.5,7.1-3.2s5.9-1.1,9.4-1.1h8.6v-4
		c0-3-0.9-5.4-2.7-7.2c-1.8-1.8-4.5-2.7-8-2.7c-1.6,0-3.1,0.2-4.4,0.7s-2.5,1-3.4,1.7s-1.7,1.6-2.2,2.5c-0.5,1-0.8,2-0.8,3h-8.7
		c0-1.8,0.5-3.6,1.4-5.4c0.9-1.8,2.3-3.4,4-4.8c1.7-1.4,3.8-2.6,6.3-3.4c2.5-0.9,5.2-1.3,8.3-1.3c2.7,0,5.3,0.3,7.6,1
		s4.3,1.8,5.9,3.2c1.6,1.4,2.9,3.2,3.9,5.3c0.9,2.1,1.4,4.6,1.4,7.4v23.4c0,1.7,0.1,3.5,0.4,5.4c0.3,1.9,0.7,3.5,1.3,4.9v0.7H708.1z
		 M693.8,864.5c1.6,0,3-0.2,4.4-0.7s2.6-1,3.7-1.7c1.1-0.7,2.1-1.5,2.9-2.4c0.8-0.9,1.5-1.8,1.9-2.8v-10.3h-7.2
		c-4.9,0-8.7,0.8-11.4,2.3c-2.7,1.5-4,3.9-4,7c0,1.2,0.2,2.3,0.6,3.4c0.4,1.1,1,2,1.8,2.7s1.8,1.4,3,1.8S692.3,864.5,693.8,864.5z"
		/>
	<path class="st0" d="M737,820.7l0.3,6.3c1.8-2.3,4-4,6.5-5.3c2.5-1.3,5.4-1.9,8.6-1.9c2.5,0,4.7,0.3,6.7,1c2,0.7,3.7,1.7,5.1,3.2
		c1.4,1.5,2.5,3.4,3.2,5.7s1.1,5.1,1.1,8.4v33h-8.6V838c0-2-0.2-3.6-0.7-5s-1.1-2.5-1.9-3.4c-0.9-0.9-1.9-1.5-3.2-1.9
		s-2.7-0.6-4.4-0.6c-2.8,0-5.2,0.7-7.4,2.2s-3.8,3.4-4.9,5.9v35.9h-8.6v-50.4H737z"/>
	<path class="st0" d="M779.4,845.5c0-3.8,0.5-7.3,1.4-10.5c0.9-3.2,2.3-5.9,4-8.1c1.7-2.3,3.8-4,6.3-5.2c2.4-1.2,5.2-1.9,8.2-1.9
		c3.1,0,5.8,0.5,8.1,1.6s4.3,2.5,6,4.5v-26.3h8.6v71.5H814l-0.4-5.4c-1.7,2-3.7,3.6-6.1,4.7c-2.4,1.1-5.1,1.6-8.3,1.6
		c-2.9,0-5.6-0.6-8.1-1.9c-2.4-1.3-4.5-3-6.3-5.3c-1.7-2.3-3.1-5-4-8.1c-0.9-3.1-1.4-6.5-1.4-10.2V845.5z M788,846.4
		c0,2.5,0.3,4.9,0.8,7.1c0.5,2.2,1.3,4.2,2.4,5.8c1.1,1.6,2.5,2.9,4.1,3.9c1.7,1,3.7,1.4,6,1.4c1.5,0,2.9-0.2,4.1-0.5
		c1.2-0.4,2.3-0.9,3.3-1.5c1-0.7,1.8-1.4,2.6-2.3c0.8-0.9,1.4-1.9,2-3v-23.1c-0.6-1-1.2-2-2-2.8c-0.7-0.9-1.6-1.6-2.6-2.3
		c-1-0.6-2.1-1.1-3.3-1.5c-1.2-0.4-2.6-0.5-4.1-0.5c-2.4,0-4.4,0.5-6.1,1.5c-1.7,1-3.1,2.3-4.2,4c-1.1,1.7-1.9,3.6-2.4,5.8
		c-0.5,2.2-0.8,4.6-0.8,7.1V846.4z"/>
</g>
<g>
	<path class="st0" d="M874.8,849.7l1.3,8.9l1.9-8.1l13.4-47.3h7.5l13.1,47.3l1.9,8.2l1.4-9.1l10.5-46.4h9l-16.4,67.8h-8.1l-14-49.4
		l-1.1-5.2l-1.1,5.2l-14.5,49.4h-8.1l-16.4-67.8h8.9L874.8,849.7z"/>
	<path class="st0" d="M939.8,845.4c0-3.7,0.5-7.1,1.6-10.2c1.1-3.1,2.6-5.8,4.6-8.1s4.4-4.1,7.2-5.4c2.8-1.3,6-2,9.5-2
		c3.6,0,6.8,0.7,9.6,2c2.8,1.3,5.3,3.1,7.2,5.4s3.5,5,4.6,8.1s1.6,6.5,1.6,10.2v1c0,3.7-0.5,7.1-1.6,10.2s-2.6,5.8-4.6,8.1
		c-2,2.3-4.4,4.1-7.2,5.4c-2.8,1.3-6,1.9-9.5,1.9c-3.5,0-6.7-0.6-9.5-1.9c-2.8-1.3-5.2-3.1-7.2-5.4c-2-2.3-3.5-5-4.6-8.1
		c-1.1-3.1-1.6-6.5-1.6-10.2V845.4z M948.4,846.4c0,2.5,0.3,4.9,0.9,7.1c0.6,2.2,1.5,4.2,2.7,5.9c1.2,1.7,2.7,3,4.5,4
		c1.8,1,3.9,1.5,6.3,1.5c2.4,0,4.4-0.5,6.2-1.5c1.8-1,3.3-2.3,4.5-4c1.2-1.7,2.1-3.7,2.7-5.9c0.6-2.2,0.9-4.6,0.9-7.1v-1
		c0-2.5-0.3-4.9-0.9-7.1s-1.5-4.2-2.7-5.9s-2.7-3-4.5-4.1c-1.8-1-3.9-1.5-6.3-1.5c-2.4,0-4.4,0.5-6.2,1.5c-1.8,1-3.3,2.4-4.4,4.1
		c-1.2,1.7-2.1,3.7-2.7,5.9c-0.6,2.3-0.9,4.6-0.9,7.1V846.4z"/>
	<path class="st0" d="M1020.8,828.4c-0.7-0.1-1.4-0.2-2.1-0.3s-1.4-0.1-2.2-0.1c-3,0-5.4,0.7-7.3,2c-1.9,1.3-3.3,3.1-4.2,5.3v35.8
		h-8.6v-50.4h8.4l0.1,5.8c1.3-2.1,2.9-3.7,4.9-4.9c2-1.2,4.3-1.8,7.1-1.8c0.6,0,1.3,0.1,2.1,0.2c0.8,0.1,1.4,0.3,1.7,0.4V828.4z"/>
	<path class="st0" d="M1042.7,847.7l-5.4,5.6v17.7h-8.6v-71.5h8.6v43.3l4.6-5.5l15.7-16.6h10.5l-19.6,21l21.9,29.3h-10.1
		L1042.7,847.7z"/>
	<path class="st0" d="M1081.3,871.1v-43.7h-8v-6.7h8v-5.3c0-2.7,0.4-5.1,1.1-7.2s1.9-3.9,3.3-5.3s3.2-2.5,5.2-3.2
		c2-0.7,4.4-1.1,6.9-1.1c2,0,4,0.3,5.9,0.8l-0.5,7c-0.7-0.1-1.4-0.2-2.2-0.3c-0.8-0.1-1.6-0.1-2.4-0.1c-2.8,0-5,0.8-6.5,2.4
		c-1.5,1.6-2.3,4-2.3,7v5.3h10.8v6.7h-10.8v43.7H1081.3z"/>
	<path class="st0" d="M1119.5,871.1h-8.6v-71.5h8.6V871.1z"/>
	<path class="st0" d="M1131,845.4c0-3.7,0.5-7.1,1.6-10.2c1.1-3.1,2.6-5.8,4.6-8.1s4.4-4.1,7.2-5.4c2.8-1.3,6-2,9.5-2
		c3.6,0,6.8,0.7,9.6,2c2.8,1.3,5.3,3.1,7.2,5.4s3.5,5,4.6,8.1c1.1,3.1,1.6,6.5,1.6,10.2v1c0,3.7-0.5,7.1-1.6,10.2
		c-1.1,3.1-2.6,5.8-4.6,8.1c-2,2.3-4.4,4.1-7.2,5.4c-2.8,1.3-6,1.9-9.5,1.9c-3.5,0-6.7-0.6-9.5-1.9c-2.8-1.3-5.2-3.1-7.2-5.4
		c-2-2.3-3.5-5-4.6-8.1c-1.1-3.1-1.6-6.5-1.6-10.2V845.4z M1139.6,846.4c0,2.5,0.3,4.9,0.9,7.1c0.6,2.2,1.5,4.2,2.7,5.9
		c1.2,1.7,2.7,3,4.5,4s3.9,1.5,6.3,1.5c2.4,0,4.4-0.5,6.2-1.5c1.8-1,3.3-2.3,4.5-4c1.2-1.7,2.1-3.7,2.7-5.9c0.6-2.2,0.9-4.6,0.9-7.1
		v-1c0-2.5-0.3-4.9-0.9-7.1c-0.6-2.3-1.5-4.2-2.7-5.9s-2.7-3-4.5-4.1c-1.8-1-3.9-1.5-6.3-1.5c-2.4,0-4.4,0.5-6.2,1.5
		c-1.8,1-3.3,2.4-4.4,4.1s-2.1,3.7-2.7,5.9c-0.6,2.3-0.9,4.6-0.9,7.1V846.4z"/>
	<path class="st0" d="M1232.2,859.2l9.7-38.5h8.6l-14.7,50.4h-7l-12.2-38.2l-11.9,38.2h-7l-14.6-50.4h8.6l9.9,37.7l11.7-37.7h6.9
		L1232.2,859.2z"/>
</g>
<g>
	<path class="st0" d="M1321.7,853.4h-28.4l-6.4,17.7h-9.2l25.9-67.8h7.8l25.9,67.8h-9.2L1321.7,853.4z M1296,846h23l-11.5-31.7
		L1296,846z"/>
	<path class="st0" d="M1375.7,866.1c-1.6,1.9-3.6,3.3-6,4.4s-5.3,1.6-8.8,1.6c-2.5,0-4.7-0.3-6.8-1c-2-0.7-3.8-1.8-5.2-3.3
		c-1.5-1.5-2.6-3.4-3.4-5.8c-0.8-2.4-1.2-5.2-1.2-8.6v-32.5h8.6v32.6c0,2.3,0.3,4.1,0.8,5.6s1.2,2.6,2.1,3.5c0.9,0.9,1.9,1.4,3,1.8
		s2.3,0.5,3.4,0.5c3.5,0,6.3-0.7,8.5-2c2.1-1.3,3.7-3.1,4.7-5.4v-36.6h8.6v50.4h-8.2L1375.7,866.1z"/>
	<path class="st0" d="M1408.9,808.5v12.2h9.4v6.7h-9.4v31.2c0,1.3,0.2,2.4,0.5,3.1s0.7,1.4,1.2,1.8c0.5,0.4,1.1,0.7,1.8,0.9
		c0.7,0.1,1.4,0.2,2.1,0.2c0.7,0,1.5-0.1,2.3-0.2c0.8-0.1,1.4-0.3,1.8-0.3v7c-0.7,0.2-1.6,0.4-2.7,0.6c-1.1,0.2-2.4,0.3-4,0.3
		c-1.6,0-3.1-0.2-4.5-0.7s-2.6-1.2-3.7-2.3c-1.1-1.1-1.9-2.4-2.5-4.2c-0.6-1.7-0.9-3.8-0.9-6.4v-31.2h-9.2v-6.7h9.2v-12.2H1408.9z"
		/>
	<path class="st0" d="M1425.2,845.4c0-3.7,0.5-7.1,1.6-10.2s2.6-5.8,4.6-8.1s4.4-4.1,7.2-5.4c2.8-1.3,6-2,9.5-2c3.6,0,6.8,0.7,9.6,2
		c2.8,1.3,5.3,3.1,7.2,5.4s3.5,5,4.6,8.1c1.1,3.1,1.6,6.5,1.6,10.2v1c0,3.7-0.5,7.1-1.6,10.2c-1.1,3.1-2.6,5.8-4.6,8.1
		c-2,2.3-4.4,4.1-7.2,5.4c-2.8,1.3-6,1.9-9.5,1.9c-3.5,0-6.7-0.6-9.5-1.9c-2.8-1.3-5.2-3.1-7.2-5.4c-2-2.3-3.5-5-4.6-8.1
		s-1.6-6.5-1.6-10.2V845.4z M1433.8,846.4c0,2.5,0.3,4.9,0.9,7.1c0.6,2.2,1.5,4.2,2.7,5.9c1.2,1.7,2.7,3,4.5,4s3.9,1.5,6.3,1.5
		c2.4,0,4.4-0.5,6.2-1.5c1.8-1,3.3-2.3,4.5-4c1.2-1.7,2.1-3.7,2.7-5.9c0.6-2.2,0.9-4.6,0.9-7.1v-1c0-2.5-0.3-4.9-0.9-7.1
		c-0.6-2.3-1.5-4.2-2.7-5.9c-1.2-1.7-2.7-3-4.5-4.1c-1.8-1-3.9-1.5-6.3-1.5c-2.4,0-4.4,0.5-6.2,1.5c-1.8,1-3.3,2.4-4.4,4.1
		c-1.2,1.7-2.1,3.7-2.7,5.9c-0.6,2.3-0.9,4.6-0.9,7.1V846.4z"/>
	<path class="st0" d="M1489.9,820.7l0.2,5.6c1.7-2,3.8-3.6,6.3-4.8c2.5-1.1,5.3-1.7,8.6-1.7c3.3,0,6.1,0.6,8.6,1.9
		c2.5,1.3,4.4,3.3,5.8,6.2c1.7-2.4,3.9-4.4,6.5-5.9c2.7-1.5,5.9-2.2,9.5-2.2c2.7,0,5.1,0.3,7.2,1s3.8,1.8,5.3,3.3
		c1.4,1.5,2.5,3.4,3.3,5.7s1.1,5,1.1,8.2v33.1h-8.6v-33.2c0-2.1-0.3-3.9-0.8-5.3c-0.5-1.4-1.2-2.5-2.2-3.4c-0.9-0.8-2.1-1.4-3.4-1.7
		s-2.8-0.5-4.4-0.5c-1.8,0-3.3,0.3-4.7,0.8s-2.5,1.3-3.5,2.3c-1,0.9-1.8,2.1-2.3,3.4c-0.6,1.3-0.9,2.7-1.1,4.1v33.4h-8.7V838
		c0-2-0.3-3.6-0.8-5c-0.5-1.4-1.2-2.5-2.2-3.4c-0.9-0.9-2.1-1.5-3.4-1.9s-2.8-0.6-4.4-0.6c-3.1,0-5.5,0.7-7.4,2
		c-1.9,1.3-3.3,3.1-4.2,5.2v36.8h-8.6v-50.4H1489.9z"/>
	<path class="st0" d="M1596.5,871.1c-0.3-0.6-0.6-1.4-0.7-2.4c-0.2-0.9-0.3-1.9-0.5-3c-0.8,0.8-1.7,1.6-2.7,2.4s-2.1,1.4-3.3,2
		c-1.2,0.6-2.5,1-3.9,1.4s-2.9,0.5-4.4,0.5c-2.6,0-4.9-0.4-7-1.2s-3.9-1.8-5.4-3.2c-1.5-1.3-2.6-2.9-3.4-4.7
		c-0.8-1.8-1.2-3.8-1.2-5.8c0-2.7,0.5-5.1,1.6-7.1c1.1-2.1,2.6-3.8,4.5-5.2c2-1.4,4.4-2.5,7.1-3.2s5.9-1.1,9.4-1.1h8.6v-4
		c0-3-0.9-5.4-2.7-7.2c-1.8-1.8-4.5-2.7-8-2.7c-1.6,0-3.1,0.2-4.4,0.7s-2.5,1-3.4,1.7c-0.9,0.7-1.7,1.6-2.2,2.5c-0.5,1-0.8,2-0.8,3
		h-8.7c0-1.8,0.5-3.6,1.4-5.4c0.9-1.8,2.3-3.4,4-4.8c1.7-1.4,3.8-2.6,6.3-3.4c2.5-0.9,5.2-1.3,8.3-1.3c2.7,0,5.3,0.3,7.6,1
		s4.3,1.8,5.9,3.2c1.6,1.4,2.9,3.2,3.9,5.3c0.9,2.1,1.4,4.6,1.4,7.4v23.4c0,1.7,0.1,3.5,0.4,5.4s0.7,3.5,1.3,4.9v0.7H1596.5z
		 M1582.2,864.5c1.6,0,3-0.2,4.4-0.7c1.4-0.4,2.6-1,3.7-1.7c1.1-0.7,2.1-1.5,2.9-2.4c0.8-0.9,1.5-1.8,1.9-2.8v-10.3h-7.2
		c-4.9,0-8.7,0.8-11.4,2.3s-4,3.9-4,7c0,1.2,0.2,2.3,0.6,3.4c0.4,1.1,1,2,1.8,2.7c0.8,0.8,1.8,1.4,3,1.8S1580.6,864.5,1582.2,864.5z
		"/>
	<path class="st0" d="M1629,808.5v12.2h9.4v6.7h-9.4v31.2c0,1.3,0.2,2.4,0.5,3.1s0.7,1.4,1.2,1.8c0.5,0.4,1.1,0.7,1.8,0.9
		c0.7,0.1,1.4,0.2,2.1,0.2c0.7,0,1.5-0.1,2.3-0.2c0.8-0.1,1.4-0.3,1.8-0.3v7c-0.7,0.2-1.6,0.4-2.7,0.6c-1.1,0.2-2.4,0.3-4,0.3
		c-1.6,0-3.1-0.2-4.5-0.7s-2.6-1.2-3.7-2.3c-1.1-1.1-1.9-2.4-2.5-4.2c-0.6-1.7-0.9-3.8-0.9-6.4v-31.2h-9.2v-6.7h9.2v-12.2H1629z"/>
	<path class="st0" d="M1648.5,807.3c0-1.4,0.4-2.6,1.3-3.5c0.9-1,2.1-1.4,3.8-1.4c1.7,0,2.9,0.5,3.8,1.4c0.9,1,1.3,2.1,1.3,3.5
		c0,1.4-0.4,2.6-1.3,3.5c-0.9,0.9-2.1,1.4-3.8,1.4c-1.7,0-2.9-0.5-3.8-1.4C1648.9,809.9,1648.5,808.7,1648.5,807.3z M1657.8,871.1
		h-8.6v-50.4h8.6V871.1z"/>
	<path class="st0" d="M1669.3,845.4c0-3.7,0.5-7.1,1.6-10.2s2.6-5.8,4.6-8.1s4.4-4.1,7.2-5.4c2.8-1.3,6-2,9.5-2c3.6,0,6.8,0.7,9.6,2
		c2.8,1.3,5.3,3.1,7.2,5.4c2,2.3,3.5,5,4.6,8.1s1.6,6.5,1.6,10.2v1c0,3.7-0.5,7.1-1.6,10.2s-2.6,5.8-4.6,8.1c-2,2.3-4.4,4.1-7.2,5.4
		c-2.8,1.3-6,1.9-9.5,1.9s-6.7-0.6-9.5-1.9c-2.8-1.3-5.2-3.1-7.2-5.4c-2-2.3-3.5-5-4.6-8.1s-1.6-6.5-1.6-10.2V845.4z M1678,846.4
		c0,2.5,0.3,4.9,0.9,7.1c0.6,2.2,1.5,4.2,2.7,5.9c1.2,1.7,2.7,3,4.5,4c1.8,1,3.9,1.5,6.3,1.5c2.4,0,4.4-0.5,6.2-1.5
		c1.8-1,3.3-2.3,4.5-4c1.2-1.7,2.1-3.7,2.7-5.9c0.6-2.2,0.9-4.6,0.9-7.1v-1c0-2.5-0.3-4.9-0.9-7.1c-0.6-2.3-1.5-4.2-2.7-5.9
		s-2.7-3-4.5-4.1c-1.8-1-3.9-1.5-6.3-1.5c-2.4,0-4.4,0.5-6.2,1.5c-1.8,1-3.3,2.4-4.4,4.1s-2.1,3.7-2.7,5.9c-0.6,2.3-0.9,4.6-0.9,7.1
		V846.4z"/>
	<path class="st0" d="M1734.1,820.7l0.3,6.3c1.8-2.3,4-4,6.5-5.3c2.5-1.3,5.4-1.9,8.6-1.9c2.5,0,4.7,0.3,6.7,1s3.7,1.7,5.1,3.2
		c1.4,1.5,2.5,3.4,3.2,5.7c0.8,2.3,1.1,5.1,1.1,8.4v33h-8.6V838c0-2-0.2-3.6-0.7-5s-1.1-2.5-1.9-3.4s-1.9-1.5-3.2-1.9
		c-1.3-0.4-2.7-0.6-4.4-0.6c-2.8,0-5.2,0.7-7.4,2.2s-3.8,3.4-4.9,5.9v35.9h-8.6v-50.4H1734.1z"/>
</g>
<g>
	<path class="st1" d="M699.3,537.7V403.7h-24.4v-20.4h24.4v-13.4c0-8.7,1.3-16.5,3.9-23.3c2.6-6.8,6.3-12.4,11.2-17
		c4.9-4.6,10.8-8.1,17.8-10.5c7-2.4,14.9-3.6,23.6-3.6c6.9,0,13.7,0.8,20.2,2.5c6.5,1.7,13.2,3.7,20.2,6.2l-4.4,22.3
		c-4.3-1.7-9.3-3.3-15.1-4.9c-5.8-1.5-12.1-2.3-18.9-2.3c-11.3,0-19.5,2.5-24.5,7.6c-5,5.1-7.5,12.7-7.5,22.9v13.4h31.5v20.4h-31.5
		v133.9H699.3z M809.3,537.7h-26.5V383.3h26.5V537.7z"/>
	<path class="st1" d="M880.9,537.7h-26.4V318.6h26.4V537.7z"/>
	<path class="st1" d="M987.2,540.5c-10.7,0-20.5-1.9-29.2-5.6c-8.7-3.7-16.1-8.9-22.3-15.5c-6.2-6.6-10.9-14.5-14.3-23.6
		c-3.3-9.1-5-19.1-5-30v-6c0-12.6,1.9-23.8,5.6-33.7c3.8-9.9,8.8-18.2,15.1-25c6.3-6.8,13.5-11.9,21.5-15.5
		c8.1-3.6,16.5-5.3,25.3-5.3c11,0,20.5,1.9,28.5,5.8c8,3.8,14.6,9.2,19.8,15.9c5.2,6.8,9,14.7,11.5,24c2.5,9.2,3.7,19.3,3.7,30.1
		v11.8H942.8c0.2,7.1,1.4,13.8,3.5,20c2.1,6.2,5.2,11.6,9.1,16.1c3.9,4.6,8.7,8.2,14.3,10.8c5.6,2.7,11.9,4,18.9,4
		c9.3,0,17.2-1.9,23.7-5.7c6.5-3.8,12.1-8.8,17-15.1l16.1,12.6c-2.5,3.8-5.5,7.5-9,11.1c-3.5,3.6-7.6,6.8-12.3,9.6
		c-4.7,2.8-10.1,5-16.2,6.7C1001.8,539.7,994.9,540.5,987.2,540.5z M983.9,402.2c-5.3,0-10.2,1-14.7,2.9c-4.5,2-8.5,4.8-12,8.5
		c-3.5,3.7-6.4,8.3-8.8,13.8c-2.3,5.5-3.9,11.8-4.8,19h77.3v-2c-0.3-5.1-1.1-10.2-2.5-15.3c-1.4-5-3.5-9.6-6.4-13.5
		c-2.9-4-6.6-7.2-11.2-9.7C996.3,403.4,990.7,402.2,983.9,402.2z"/>
	<path class="st1" d="M1071.5,459.2c0-11.8,1.4-22.5,4.3-32.2c2.9-9.6,7-17.9,12.3-24.8c5.3-6.9,11.7-12.2,19.2-16
		c7.5-3.8,15.8-5.7,25-5.7c9.4,0,17.6,1.6,24.7,4.8c7,3.2,13.1,7.8,18.3,13.8v-80.5h26.4v219.1h-24.3l-1.3-16.5
		c-5.1,6.3-11.3,11.1-18.5,14.4c-7.2,3.3-15.7,5-25.5,5c-9,0-17.3-1.9-24.7-5.8c-7.5-3.9-13.9-9.3-19.2-16.3
		c-5.3-7-9.4-15.3-12.3-24.8c-2.9-9.6-4.3-20-4.3-31.3V459.2z M1097.9,462.2c0,7.7,0.8,15,2.4,21.8c1.6,6.8,4,12.7,7.3,17.8
		c3.3,5,7.6,9,12.7,12c5.1,2.9,11.3,4.4,18.4,4.4c4.7,0,8.8-0.5,12.6-1.6c3.7-1.1,7.1-2.6,10.1-4.6c3-2,5.7-4.4,8-7.1
		c2.3-2.8,4.3-5.8,6.1-9.1v-70.9c-1.7-3.1-3.7-6-6-8.7c-2.3-2.7-4.9-5-7.9-6.9c-3-1.9-6.3-3.5-10.1-4.6c-3.7-1.1-7.8-1.6-12.4-1.6
		c-7.2,0-13.4,1.5-18.6,4.5s-9.4,7.1-12.8,12.2c-3.3,5.1-5.8,11.1-7.3,17.9c-1.6,6.8-2.4,14-2.4,21.8V462.2z"/>
	<path class="st1" d="M1235.7,459.1c0-11.2,1.6-21.6,4.9-31.2c3.3-9.6,7.9-17.9,14-24.9c6-7,13.4-12.6,22-16.5c8.7-4,18.4-6,29.1-6
		c10.9,0,20.8,2,29.5,6c8.7,4,16.1,9.5,22.2,16.5c6.1,7,10.7,15.3,14,24.9c3.2,9.6,4.8,19.9,4.8,31.2v3.1c0,11.2-1.6,21.6-4.8,31.2
		c-3.2,9.6-7.9,17.8-14,24.8c-6.1,7-13.5,12.5-22.1,16.4c-8.7,3.9-18.4,5.9-29.2,5.9c-10.8,0-20.6-2-29.2-5.9
		c-8.7-3.9-16-9.4-22.1-16.4c-6.1-7-10.8-15.3-14-24.8c-3.3-9.6-4.9-19.9-4.9-31.2V459.1z M1262.2,462.2c0,7.7,0.9,15,2.7,21.8
		c1.8,6.8,4.5,12.9,8.2,18c3.7,5.2,8.2,9.3,13.7,12.3c5.5,3,11.9,4.6,19.2,4.6c7.2,0,13.6-1.5,19.1-4.6c5.5-3,10.1-7.2,13.7-12.3
		c3.6-5.2,6.3-11.2,8.2-18c1.9-6.8,2.8-14.1,2.8-21.8v-3.1c0-7.6-0.9-14.9-2.8-21.8c-1.9-6.9-4.6-12.9-8.3-18.1
		c-3.7-5.2-8.3-9.3-13.8-12.4c-5.5-3.1-11.9-4.6-19.3-4.6c-7.2,0-13.6,1.5-19,4.6c-5.4,3.1-10,7.2-13.6,12.4
		c-3.7,5.2-6.4,11.2-8.2,18.1c-1.8,6.9-2.7,14.1-2.7,21.8V462.2z"/>
	<path class="st1" d="M1471.2,519c4.7,0,9.1-0.8,13.4-2.3c4.3-1.5,8.1-3.6,11.3-6.3c3.3-2.7,5.9-5.8,8-9.5c2-3.7,3.3-7.6,3.6-11.9
		h25c-0.4,6.8-2.3,13.4-5.6,19.6c-3.4,6.2-7.8,11.7-13.3,16.4c-5.5,4.7-11.9,8.5-19.2,11.3c-7.3,2.8-15,4.2-23.2,4.2
		c-11.6,0-21.7-2.1-30.3-6.2c-8.6-4.1-15.8-9.7-21.5-16.8c-5.7-7-10-15.2-12.8-24.5c-2.8-9.3-4.2-19.2-4.2-29.5v-6
		c0-10.4,1.4-20.2,4.2-29.5c2.8-9.3,7.1-17.5,12.8-24.5c5.7-7,12.8-12.6,21.4-16.8c8.6-4.1,18.6-6.2,30.2-6.2c9,0,17.2,1.4,24.6,4.3
		c7.4,2.9,13.7,6.8,19.1,11.8c5.4,5,9.6,10.9,12.6,17.8c3,6.8,4.8,14.2,5.1,22.1h-25c-0.4-4.8-1.5-9.2-3.4-13.3
		c-1.9-4.1-4.4-7.8-7.5-10.8c-3.1-3.1-6.9-5.5-11.2-7.3c-4.3-1.8-9.2-2.7-14.5-2.7c-8.2,0-15,1.6-20.3,4.9c-5.4,3.2-9.7,7.5-13,12.8
		c-3.3,5.3-5.6,11.2-6.9,17.8c-1.3,6.6-2,13.2-2,19.9v6c0,6.8,0.7,13.6,2,20.2c1.3,6.6,3.6,12.5,6.8,17.8c3.2,5.2,7.6,9.5,13,12.7
		C1456.1,517.4,1462.9,519,1471.2,519z"/>
</g>
<g>
	<path class="st2" d="M275.9,280.2l-0.9-1.4c-22.5,14.5-41.6,33.6-56.1,55.9l79.2,42.8c6.2-8.3,13.9-15.4,22.4-21.3L275.9,280.2z"/>
	<path class="st3" d="M166.4,513.4c-0.1-0.3-0.2-0.7-0.4-1c-0.1-0.4-0.3-0.8-0.4-1.2c-0.3-0.7-0.5-1.5-0.8-2.2
		c-0.1-0.4-0.3-0.8-0.4-1.2c-0.3-0.8-0.5-1.6-0.8-2.4c-0.1-0.3-0.2-0.5-0.2-0.8c-0.3-0.9-0.6-1.9-0.9-2.8l-0.1-0.3
		c-21.4-70.9-5.9-145.4,36.7-201.1l49.1,37.6l78.8,60.3c-2.6,3.4-4.9,7.1-6.7,11l0,0c-9.1,18.9-8.6,41.8,3.1,60.8l-84.6,51.9
		l-52.6,32.3C178.1,541.2,171.5,527.5,166.4,513.4L166.4,513.4z"/>
	<path class="st4" d="M298.7,376.5c-1,1.3-2,2.7-3,4.1l-52,3.8l-29-43c3.9-6.7,8.3-13.2,13-19.3l30.2,23.2L298.7,376.5z"/>
	<path class="st5" d="M548.5,358c-24.4-55-71.8-92.6-125.9-106.5l-15.2,88.7c25.6,8.5,47.6,27.4,59.4,54c11.5,26,10.9,54.4,0.7,78.7
		L544,520C568.9,471.2,572.4,412,548.5,358z"/>
	<path class="st5" d="M394.2,531.9c-34.4,6.5-69.7-5.9-92.6-31.9l-75.2,49.1c45.9,59.8,123.9,87.2,197.6,67.7L394.2,531.9z"/>
	<path class="st3" d="M485.7,630.2L485.7,630.2c-0.6,0.3-1.1,0.6-1.6,0.9c-0.3,0.2-0.7,0.4-1,0.5l-0.7,0.4c-6,3.2-12.1,6.2-18.5,8.9
		l-0.3,0.1h0c-0.5,0.2-0.9,0.4-1.4,0.6c-0.4,0.2-0.8,0.3-1.2,0.5l-0.5,0.2c-3.5,1.4-6.9,2.7-10.4,3.9l0,0c-8.6,3-17.6,5.5-26.7,7.5
		c-5.9,1.3-11.7,2.3-17.6,3.1l-9.7-72.3l-11.7-87.3c1.7-0.2,3.3-0.5,5-0.9c13.1-2.8,24.3-9.5,32.8-18.6l0,0c3-3.2,5.6-6.6,7.8-10.3
		l75,46.1l62.2,38.2C547.7,583.7,520.1,611,485.7,630.2 M272.3,235.2c4.2-2.2,8.4-4.2,12.8-6.2c26.3-11.6,53.7-17.8,80.8-19
		c32-1.5,63.2,4,91.9,15.3l-26.9,68.8L399,375.3c-4-1.6-8.1-2.7-12.3-3.5v0c-11.9-2.1-24.5-0.7-36.4,4.5c-1.2,0.5-2.4,1.1-3.6,1.7
		l-40.3-77.3L272.3,235.2z"/>
	<path class="st4" d="M412.1,341.9c-1.6-0.6-3.2-1.2-4.8-1.7l-18-48.9l33.3-39.8c7.5,1.9,14.9,4.3,22.2,7.1l-13.9,35.4L412.1,341.9z
		"/>
	<path class="st4" d="M401.1,621.4l-5-36.9l-7-51.8c1.7-0.2,3.4-0.5,5.1-0.8l34.2,32.1l-4.4,52.8
		C416.4,618.8,408.7,620.3,401.1,621.4"/>
</g>
</svg>
